<svg width="40" height="40" viewBox="0 0 40 40" fill="none" xmlns="http://www.w3.org/2000/svg">
<path d="M0 5C0 2.23858 2.23858 0 5 0H35C37.7614 0 40 2.23858 40 5V35C40 37.7614 37.7614 40 35 40H5C2.23858 40 0 37.7614 0 35V5Z" fill="#EAEEE5"/>
<path d="M20.142 13.9668L11.5004 21.7635V30.1785C11.5004 30.3964 11.5794 30.6053 11.72 30.7594C11.8607 30.9134 12.0514 31 12.2503 31L17.5027 30.9851C17.701 30.984 17.8907 30.897 18.0306 30.743C18.1704 30.5891 18.2489 30.3808 18.2489 30.1636V25.2494C18.2489 25.0315 18.3279 24.8225 18.4685 24.6685C18.6092 24.5144 18.7999 24.4278 18.9988 24.4278H21.9986C22.1975 24.4278 22.3883 24.5144 22.5289 24.6685C22.6695 24.8225 22.7486 25.0315 22.7486 25.2494V30.16C22.7482 30.2681 22.7674 30.3752 22.805 30.4752C22.8425 30.5751 22.8977 30.666 22.9674 30.7426C23.037 30.8191 23.1198 30.8799 23.211 30.9213C23.3021 30.9628 23.3998 30.9841 23.4985 30.9841L28.749 31C28.9479 31 29.1387 30.9134 29.2793 30.7594C29.42 30.6053 29.499 30.3964 29.499 30.1785V21.7579L20.8592 13.9668C20.7576 13.8771 20.6311 13.8282 20.5006 13.8282C20.3701 13.8282 20.2436 13.8771 20.142 13.9668ZM33.7924 19.2661L29.8739 15.7279V8.61614C29.8739 8.45273 29.8147 8.29601 29.7092 8.18046C29.6037 8.06492 29.4607 8 29.3115 8H26.6867C26.5375 8 26.3945 8.06492 26.289 8.18046C26.1835 8.29601 26.1242 8.45273 26.1242 8.61614V12.3443L21.9278 8.56223C21.5251 8.19921 21.0198 8.00073 20.4983 8.00073C19.9767 8.00073 19.4714 8.19921 19.0687 8.56223L7.20412 19.2661C7.14717 19.3177 7.10005 19.381 7.06545 19.4526C7.03086 19.5241 7.00947 19.6024 7.0025 19.683C6.99554 19.7636 7.00314 19.8448 7.02486 19.9222C7.04659 19.9996 7.08202 20.0715 7.12913 20.1339L8.32435 21.7255C8.37133 21.7881 8.42912 21.8399 8.4944 21.878C8.55968 21.9161 8.63118 21.9397 8.7048 21.9475C8.77842 21.9553 8.85272 21.947 8.92344 21.9233C8.99416 21.8996 9.05992 21.8608 9.11695 21.8092L20.142 11.8617C20.2436 11.772 20.3701 11.7231 20.5006 11.7231C20.6311 11.7231 20.7576 11.772 20.8592 11.8617L31.8847 21.8092C31.9417 21.8608 32.0073 21.8997 32.0779 21.9235C32.1486 21.9473 32.2228 21.9556 32.2963 21.948C32.3699 21.9403 32.4414 21.9169 32.5066 21.879C32.5719 21.8411 32.6298 21.7895 32.6768 21.7271L33.8721 20.1354C33.9191 20.0727 33.9544 20.0004 33.9759 19.9227C33.9974 19.845 34.0046 19.7634 33.9972 19.6826C33.9898 19.6018 33.9679 19.5235 33.9327 19.452C33.8976 19.3805 33.8499 19.3173 33.7924 19.2661Z" fill="#3E7E55"/>
</svg>
