<svg width="40" height="40" viewBox="0 0 40 40" fill="none" xmlns="http://www.w3.org/2000/svg">
<path d="M0 5C0 2.23858 2.23858 0 5 0H35C37.7614 0 40 2.23858 40 5V35C40 37.7614 37.7614 40 35 40H5C2.23858 40 0 37.7614 0 35V5Z" fill="#EAEEE5"/>
<path d="M20 8.625C17.7502 8.625 15.551 9.29213 13.6804 10.542C11.8098 11.7919 10.3518 13.5685 9.49087 15.647C8.62992 17.7255 8.40466 20.0126 8.84357 22.2192C9.28247 24.4257 10.3658 26.4525 11.9567 28.0433C13.5475 29.6342 15.5743 30.7175 17.7808 31.1564C19.9874 31.5953 22.2745 31.3701 24.353 30.5091C26.4315 29.6482 28.2081 28.1902 29.458 26.3196C30.7079 24.449 31.375 22.2498 31.375 20C31.3718 16.9841 30.1724 14.0927 28.0398 11.9602C25.9073 9.82764 23.0159 8.62818 20 8.625ZM19.5625 13.875C19.8221 13.875 20.0758 13.952 20.2917 14.0962C20.5075 14.2404 20.6757 14.4454 20.7751 14.6852C20.8744 14.9251 20.9004 15.189 20.8498 15.4436C20.7991 15.6982 20.6741 15.932 20.4906 16.1156C20.307 16.2991 20.0732 16.4241 19.8186 16.4748C19.564 16.5254 19.3001 16.4994 19.0602 16.4001C18.8204 16.3008 18.6154 16.1325 18.4712 15.9167C18.327 15.7008 18.25 15.4471 18.25 15.1875C18.25 14.8394 18.3883 14.5056 18.6344 14.2594C18.8806 14.0133 19.2144 13.875 19.5625 13.875ZM20.875 26.125C20.4109 26.125 19.9658 25.9406 19.6376 25.6124C19.3094 25.2842 19.125 24.8391 19.125 24.375V20C18.8929 20 18.6704 19.9078 18.5063 19.7437C18.3422 19.5796 18.25 19.3571 18.25 19.125C18.25 18.8929 18.3422 18.6704 18.5063 18.5063C18.6704 18.3422 18.8929 18.25 19.125 18.25C19.5891 18.25 20.0342 18.4344 20.3624 18.7626C20.6906 19.0908 20.875 19.5359 20.875 20V24.375C21.1071 24.375 21.3296 24.4672 21.4937 24.6313C21.6578 24.7954 21.75 25.0179 21.75 25.25C21.75 25.4821 21.6578 25.7046 21.4937 25.8687C21.3296 26.0328 21.1071 26.125 20.875 26.125Z" fill="#3E7E55"/>
</svg>
