<svg width="40" height="40" viewBox="0 0 40 40" fill="none" xmlns="http://www.w3.org/2000/svg">
<path d="M0 5C0 2.23858 2.23858 0 5 0H35C37.7614 0 40 2.23858 40 5V35C40 37.7614 37.7614 40 35 40H5C2.23858 40 0 37.7614 0 35V5Z" fill="#EAEEE5"/>
<path d="M33.9002 30.1678L28.4759 17.0698C28.3757 16.8279 28.2058 16.6211 27.9876 16.4756C27.7694 16.3301 27.5128 16.2524 27.2503 16.2524C26.9878 16.2524 26.7312 16.3301 26.513 16.4756C26.2948 16.6211 26.1249 16.8279 26.0247 17.0698L20.6004 30.1678C20.533 30.3284 20.498 30.5007 20.4976 30.6749C20.4972 30.849 20.5312 31.0215 20.5979 31.1825C20.6645 31.3434 20.7624 31.4897 20.8859 31.6128C21.0094 31.7359 21.1561 31.8335 21.3176 31.9C21.479 31.9664 21.6521 32.0004 21.8267 32C22.0014 31.9996 22.1743 31.9648 22.3354 31.8975C22.4965 31.8303 22.6428 31.732 22.7657 31.6083C22.8886 31.4846 22.9858 31.3378 23.0516 31.1766L24.1564 28.5095H30.3442L31.449 31.1766C31.5491 31.4186 31.7191 31.6255 31.9373 31.771C32.1556 31.9166 32.4123 31.9943 32.6749 31.9943C32.8927 31.9942 33.1072 31.9405 33.2994 31.8381C33.4915 31.7356 33.6553 31.5876 33.7764 31.407C33.8975 31.2264 33.9721 31.0189 33.9935 30.8028C34.015 30.5866 33.9833 30.3685 33.9002 30.1678ZM25.2515 25.8659L27.2506 21.0383L29.2497 25.8659H25.2515ZM21.214 24.7195C21.42 24.4358 21.5046 24.0823 21.4494 23.7365C21.3941 23.3906 21.2035 23.0808 20.9193 22.875C20.9072 22.866 20.0152 22.2063 18.72 20.7883C21.1097 17.5631 22.4634 13.8939 23.0155 12.1671H24.9604C25.312 12.1671 25.6493 12.0278 25.8979 11.7799C26.1466 11.532 26.2863 11.1958 26.2863 10.8453C26.2863 10.4947 26.1466 10.1585 25.8979 9.91061C25.6493 9.66272 25.312 9.52346 24.9604 9.52346H17.9691V8.32181C17.9691 7.97125 17.8294 7.63504 17.5807 7.38715C17.3321 7.13926 16.9948 7 16.6431 7C16.2915 7 15.9542 7.13926 15.7056 7.38715C15.4569 7.63504 15.3172 7.97125 15.3172 8.32181V9.52346H8.32593C7.97427 9.52346 7.63702 9.66272 7.38836 9.91061C7.1397 10.1585 7 10.4947 7 10.8453C7 11.1958 7.1397 11.532 7.38836 11.7799C7.63702 12.0278 7.97427 12.1671 8.32593 12.1671H20.2141C19.6404 13.7863 18.5838 16.3428 16.9722 18.6776C15.0791 16.1734 14.3758 14.553 14.3704 14.5397C14.2318 14.2205 13.9725 13.9685 13.6488 13.8385C13.3251 13.7086 12.963 13.7111 12.6412 13.8455C12.3193 13.9799 12.0635 14.2354 11.9294 14.5566C11.7953 14.8778 11.7936 15.2387 11.9246 15.5611C11.9596 15.6441 12.8016 17.6178 15.1105 20.6039C15.1659 20.6754 15.2208 20.7451 15.2756 20.8147C12.9106 23.4794 10.5903 25.1323 9.61932 25.6658C9.31058 25.8337 9.08138 26.1169 8.98214 26.4533C8.8829 26.7896 8.92176 27.1515 9.09015 27.4593C9.25855 27.767 9.5427 27.9955 9.88008 28.0945C10.2175 28.1934 10.5805 28.1547 10.8892 27.9868C11.0194 27.9159 13.8183 26.3712 17.0144 22.8443C18.3717 24.2911 19.3046 24.9737 19.3607 25.0133C19.5017 25.1154 19.6616 25.1888 19.8311 25.2293C20.0006 25.2698 20.1764 25.2765 20.3486 25.2492C20.5207 25.2218 20.6857 25.1609 20.8342 25.0699C20.9827 24.9789 21.1118 24.8603 21.214 24.7195Z" fill="#3E7E55"/>
</svg>
