<?xml version="1.0" encoding="UTF-8" standalone="no" ?>
<!DOCTYPE svg PUBLIC "-//W3C//DTD SVG 1.1//EN" "http://www.w3.org/Graphics/SVG/1.1/DTD/svg11.dtd">
<svg xmlns="http://www.w3.org/2000/svg" xmlns:xlink="http://www.w3.org/1999/xlink" version="1.1" width="40" height="40" viewBox="0 0 40 40" xml:space="preserve">
<desc>Created with Fabric.js 5.2.4</desc>
<defs>
</defs>
<rect x="0" y="0" width="100%" height="100%" fill="transparent"></rect>
<g transform="matrix(1 0 0 1 20 20)" id="b412c824-e31d-428f-9a7f-4d042a137f7f"  >
<rect style="stroke: none; stroke-width: 1; stroke-dasharray: none; stroke-linecap: butt; stroke-dashoffset: 0; stroke-linejoin: miter; stroke-miterlimit: 4; fill: rgb(255,255,255); fill-rule: nonzero; opacity: 1; visibility: hidden;" vector-effect="non-scaling-stroke"  x="-20" y="-20" rx="0" ry="0" width="40" height="40" />
</g>
<g transform="matrix(Infinity NaN NaN Infinity 0 0)" id="81968037-c958-4ef2-839d-02c21ccd0e08"  >
</g>
<g transform="matrix(0.04 0 0 0.04 40 40)"  >
<path style="stroke: none; stroke-width: 1; stroke-dasharray: none; stroke-linecap: butt; stroke-dashoffset: 0; stroke-linejoin: miter; stroke-miterlimit: 4; fill: rgb(234,238,229); fill-rule: nonzero; opacity: 1;" vector-effect="non-scaling-stroke"  transform=" translate(-22, -20)" d="M 2 5 C 2 2.23858 4.23858 0 7 0 L 37 0 C 39.7614 0 42 2.23858 42 5 L 42 35 C 42 37.7614 39.7614 40 37 40 L 7 40 C 4.23858 40 2 37.7614 2 35 L 2 5 Z" stroke-linecap="round" />
</g>
<g transform="matrix(0.04 0 0 0.04 39.98 39.98)"  >
<path style="stroke: rgb(62,126,85); stroke-width: 0; stroke-dasharray: none; stroke-linecap: butt; stroke-dashoffset: 0; stroke-linejoin: miter; stroke-miterlimit: 4; fill: none; fill-rule: nonzero; opacity: 1;" vector-effect="non-scaling-stroke"  transform=" translate(-22, -20)" d="M 2.5 5 C 2.5 2.51472 4.51472 0.5 7 0.5 L 37 0.5 C 39.4853 0.5 41.5 2.51472 41.5 5 L 41.5 35 C 41.5 37.4853 39.4853 39.5 37 39.5 L 7 39.5 C 4.51472 39.5 2.5 37.4853 2.5 35 L 2.5 5 Z" stroke-linecap="round" />
</g>
<g transform="matrix(0.04 0 0 0.04 40 40)"  >
<path style="stroke: none; stroke-width: 1; stroke-dasharray: none; stroke-linecap: butt; stroke-dashoffset: 0; stroke-linejoin: miter; stroke-miterlimit: 4; fill: rgb(62,126,85); fill-rule: nonzero; opacity: 1;" vector-effect="non-scaling-stroke"  transform=" translate(-22.89, -20.86)" d="M 9 14.1519 L 9 30.9378 C 9 31.4865 9.55122 31.8616 10.0581 31.6581 L 16.716 28.6122 L 16.716 10 L 9.97029 12.7119 C 9.68392 12.827 9.43843 13.0257 9.26548 13.2824 C 9.09254 13.539 9.00007 13.8419 9 14.1519 Z M 18.2593 28.6122 L 27.5185 31.7143 L 27.5185 13.102 L 18.2593 10 L 18.2593 28.6122 Z M 35.7197 10.0562 L 29.0617 13.102 L 29.0617 31.7143 L 35.8075 29.0024 C 36.0939 28.8874 36.3394 28.6887 36.5124 28.432 C 36.6853 28.1753 36.7778 27.8724 36.7778 27.5624 L 36.7778 10.7765 C 36.7778 10.2278 36.2266 9.85265 35.7197 10.0562 Z" stroke-linecap="round" />
</g>
<g transform="matrix(1 0 0 1 20 20)"  >
<g style="" vector-effect="non-scaling-stroke"   >
		<g transform="matrix(1 0 0 1 0 0)"  >
<path style="stroke: none; stroke-width: 1; stroke-dasharray: none; stroke-linecap: butt; stroke-dashoffset: 0; stroke-linejoin: miter; stroke-miterlimit: 4; fill: rgb(234,238,229); fill-rule: nonzero; opacity: 1;" vector-effect="non-scaling-stroke"  transform=" translate(-23, -21)" d="M 3 6 C 3 3.23858 5.23858 1 8 1 L 38 1 C 40.7614 1 43 3.23858 43 6 L 43 36 C 43 38.7614 40.7614 41 38 41 L 8 41 C 5.23858 41 3 38.7614 3 36 L 3 6 Z" stroke-linecap="round" />
</g>
		<g transform="matrix(1 0 0 1 -0.11 -0.14)"  >
<path style="stroke: none; stroke-width: 1; stroke-dasharray: none; stroke-linecap: butt; stroke-dashoffset: 0; stroke-linejoin: miter; stroke-miterlimit: 4; fill: rgb(62,126,85); fill-rule: nonzero; opacity: 1;" vector-effect="non-scaling-stroke"  transform=" translate(-22.89, -20.86)" d="M 9 14.1519 L 9 30.9378 C 9 31.4865 9.55122 31.8616 10.0581 31.6581 L 16.716 28.6122 L 16.716 10 L 9.97029 12.7119 C 9.68392 12.827 9.43843 13.0257 9.26548 13.2824 C 9.09254 13.539 9.00007 13.8419 9 14.1519 Z M 18.2593 28.6122 L 27.5185 31.7143 L 27.5185 13.102 L 18.2593 10 L 18.2593 28.6122 Z M 35.7197 10.0562 L 29.0617 13.102 L 29.0617 31.7143 L 35.8075 29.0024 C 36.0939 28.8874 36.3394 28.6887 36.5124 28.432 C 36.6853 28.1753 36.7778 27.8724 36.7778 27.5624 L 36.7778 10.7765 C 36.7778 10.2278 36.2266 9.85265 35.7197 10.0562 Z" stroke-linecap="round" />
</g>
		<g transform="matrix(1 0 0 1 13 8)"  >
<path style="stroke: none; stroke-width: 1; stroke-dasharray: none; stroke-linecap: butt; stroke-dashoffset: 0; stroke-linejoin: miter; stroke-miterlimit: 4; fill: rgb(234,238,229); fill-rule: nonzero; opacity: 1;" vector-effect="non-scaling-stroke"  transform=" translate(-36, -29)" d="M 31 26 C 31 24.8954 31.8954 24 33 24 L 39 24 C 40.1046 24 41 24.8954 41 26 L 41 32 C 41 33.1046 40.1046 34 39 34 L 33 34 C 31.8954 34 31 33.1046 31 32 L 31 26 Z" stroke-linecap="round" />
</g>
		<g transform="matrix(1 0 0 1 0 0)"  >
<path style="stroke: rgb(62,126,85); stroke-width: 0.7; stroke-dasharray: none; stroke-linecap: round; stroke-dashoffset: 0; stroke-linejoin: miter; stroke-miterlimit: 4; fill: none; fill-rule: nonzero; opacity: 1;" vector-effect="non-scaling-stroke"  transform=" translate(-23, -21)" d="M 34.4 25 L 32 25 M 32 25 L 32 27.4 M 32 25 L 34.6667 27.6667 M 37.6 33 L 40 33 M 40 33 L 40 30.6 M 40 33 L 37.3333 30.3333 M 40 27.4 L 40 25 M 40 25 L 37.6 25 M 40 25 L 37.3333 27.6667 M 32 30.6 L 32 33 M 32 33 L 34.4 33 M 32 33 L 34.6667 30.3333 M 8 41 L 38 41 C 40.7614 41 43 38.7614 43 36 L 43 6 C 43 3.23858 40.7614 1 38 1 L 8 1 C 5.23858 1 3 3.23858 3 6 L 3 36 C 3 38.7614 5.23858 41 8 41 Z M 9 14.1519 L 9 30.9378 C 9 31.4865 9.55122 31.8616 10.0581 31.6581 L 16.716 28.6122 L 16.716 10 L 9.97029 12.7119 C 9.68392 12.827 9.43843 13.0257 9.26548 13.2824 C 9.09254 13.539 9.00007 13.8419 9 14.1519 Z M 18.2593 28.6122 L 27.5185 31.7143 L 27.5185 13.102 L 18.2593 10 L 18.2593 28.6122 Z M 35.7197 10.0562 L 29.0617 13.102 L 29.0617 31.7143 L 35.8075 29.0024 C 36.0939 28.8874 36.3394 28.6887 36.5124 28.432 C 36.6853 28.1753 36.7778 27.8724 36.7778 27.5624 L 36.7778 10.7765 C 36.7778 10.2278 36.2266 9.85265 35.7197 10.0562 Z M 33 34 L 39 34 C 40.1046 34 41 33.1046 41 32 L 41 26 C 41 24.8954 40.1046 24 39 24 L 33 24 C 31.8954 24 31 24.8954 31 26 L 31 32 C 31 33.1046 31.8954 34 33 34 Z" stroke-linecap="round" />
</g>
</g>
</g>
</svg>