<svg width="40" height="40" viewBox="0 0 40 40" fill="none" xmlns="http://www.w3.org/2000/svg">
<path d="M0 5C0 2.23858 2.23858 0 5 0H35C37.7614 0 40 2.23858 40 5V35C40 37.7614 37.7614 40 35 40H5C2.23858 40 0 37.7614 0 35V5Z" fill="#EAEEE5"/>
<path d="M20.5 20C19.7553 20 19.0105 19.8621 18.43 19.5863L10.2473 15.6927C9.873 15.515 9 14.9952 9 14.0138C9 13.0325 9.873 12.5138 10.2484 12.3338L18.5019 8.40673C19.6392 7.86442 21.3553 7.86442 22.4931 8.40673L30.7516 12.3338C31.127 12.5121 32 13.0319 32 14.0138C32 14.9958 31.127 15.5138 30.7516 15.6933L22.5689 19.5863C21.9895 19.8621 21.2447 20 20.5 20Z" fill="#3E7E55"/>
<path d="M30.7483 18.3891L29.914 18L22.5733 21.4709C21.9928 21.7451 21.2464 21.8817 20.5033 21.8817C19.7602 21.8817 19.0144 21.7451 18.4344 21.4709L11.0894 18L10.2479 18.3909C9.87301 18.5674 9 19.0857 9 20.0571C9 21.0286 9.873 21.5474 10.2473 21.724L18.43 25.5886C19.0072 25.8629 19.7531 26 20.5 26C21.2469 26 21.9895 25.8629 22.57 25.5891L30.7455 21.7257C31.122 21.5491 32 21.0337 32 20.0571C32 19.0806 31.1281 18.5674 30.7483 18.3891Z" fill="#3E7E55"/>
<path d="M30.7483 24.34L29.914 24L22.5733 27.034C21.9928 27.273 21.2464 27.393 20.5033 27.393C19.7602 27.393 19.0144 27.2735 18.4344 27.034L11.0894 24L10.2479 24.342C9.87301 24.4965 9 24.95 9 25.8C9 26.65 9.873 27.1035 10.2473 27.2575L18.43 30.637C19.0072 30.876 19.7558 31 20.5 31C21.2442 31 21.9862 30.876 22.5667 30.6365L30.745 27.258C31.122 27.104 32 26.653 32 25.8C32 24.947 31.1281 24.4965 30.7483 24.34Z" fill="#3E7E55"/>
</svg>
