<svg width="40" height="40" viewBox="0 0 40 40" fill="none" xmlns="http://www.w3.org/2000/svg">
<g filter="url(#filter0_d_580_497)">
<circle cx="18" cy="18" r="16" fill="#F7E1AE"/>
<circle cx="18" cy="18" r="15.75" stroke="#7ABD87" stroke-width="0.5"/>
</g>
<g filter="url(#filter1_d_580_497)">
<path d="M9.44811 10.372L11.7921 9.88408C11.9417 9.84383 12.0715 9.73633 12.1536 9.58493C12.2356 9.43354 12.2632 9.25048 12.2302 9.07551C12.1973 8.90055 12.1066 8.74782 11.9777 8.6505C11.8489 8.55318 11.6923 8.51913 11.5421 8.55574L9.22011 9.30979C8.90611 9.3915 8.69411 9.63196 8.76211 9.99848C8.83211 10.365 9.13411 10.4537 9.44811 10.372Z" fill="#BA8F63"/>
<path d="M23.124 16.9553C21.968 16.1499 21.214 15.5826 20.49 14.4994L17.14 9.49416C17.0414 9.30377 16.9112 9.13835 16.757 9.00764C16.6027 8.87694 16.4277 8.78359 16.242 8.7331C16.226 8.72843 16.21 8.7261 16.194 8.72143L16.196 8.70509L9.34004 8.00706C9.12604 7.98605 8.91204 8.01173 8.70604 8.08644L7.64204 8.47397C7.50204 8.52533 7.36804 8.5977 7.24204 8.69108C6.99404 8.87551 6.54804 9.21868 6.34204 9.42879C6.22804 9.54552 6.15204 9.66458 6.15204 9.87702C6.15204 10.0498 6.21204 10.2039 6.32404 10.3112C6.44604 10.4303 6.61804 10.477 6.79404 10.4396C7.01604 10.3929 7.26204 10.1432 7.43004 9.94239C7.47604 9.88636 7.53604 9.85134 7.60204 9.842L8.72804 9.66925C8.81404 9.65524 8.89804 9.65991 8.97804 9.68092C9.12804 9.72061 9.30404 9.75562 9.51004 9.79998C9.77604 9.85601 10.108 9.92371 10.496 10.0241C10.976 10.1478 14.546 11.4925 14.58 11.5042C14.822 11.6022 15.034 11.7913 15.176 12.0411L16.52 14.399C17.026 15.2861 17.02 16.4557 16.508 17.3101L16.488 17.3428C15.946 18.2556 15.3 19.8711 15.05 20.945C14.512 23.2492 14.838 24.7479 16.024 25.4016L20.552 27.8972L25.868 24.1923L27.846 20.1116L23.124 16.9553Z" fill="url(#paint0_linear_580_497)"/>
<path d="M17.4399 20.9496C17.5298 20.7914 17.592 20.6141 17.6232 20.4278C17.6543 20.2416 17.6537 20.0499 17.6214 19.8639C17.5891 19.6779 17.5257 19.5012 17.4348 19.3438C17.344 19.1864 17.2275 19.0514 17.0919 18.9466L16.2099 18.2649L14.8439 20.6741L15.7259 21.3558C16.2939 21.797 17.0619 21.6149 17.4399 20.9496Z" fill="#C48E6A"/>
<path d="M9.20204 14.6558C9.20204 14.6558 9.22804 14.6067 9.24004 14.5857L9.28004 14.5157C10.88 12.0458 12.436 12.4496 13.384 12.9539C14.412 13.4978 15.126 13.9857 15.126 13.9857C15.126 13.9857 15.064 13.9998 14.964 14.0371C14.86 14.0791 14.774 14.1468 14.774 14.1468L15.482 14.8915L13.354 14.546C13.3477 14.5446 13.3411 14.5457 13.3353 14.5491C13.3296 14.5525 13.3249 14.5579 13.322 14.5647L13.07 15.139C12.8154 15.7153 12.535 16.2756 12.23 16.8175H12.232C12.218 16.8409 12.206 16.8642 12.192 16.8876C12.178 16.9109 12.166 16.9343 12.152 16.9576H12.15C11.8418 17.4976 11.5094 18.0181 11.154 18.5171L10.8 19.012C10.7958 19.0178 10.7934 19.025 10.793 19.0326C10.7927 19.0402 10.7944 19.0477 10.798 19.054L11.902 21.2064L11.038 20.7349C11.038 20.7349 11.016 20.8539 11.024 20.9823C11.032 21.1037 11.046 21.1761 11.046 21.1761C11.046 21.1761 10.31 20.6275 9.52204 19.6843C8.77604 18.7902 7.91204 17.2658 9.20204 14.6558Z" fill="#AB872F"/>
<path d="M15.632 14.1306C15.094 13.715 14.678 14.231 14.678 14.231L14.526 14.4994L11.224 20.3194L11.072 20.5879C11.072 20.5879 10.828 21.2369 11.366 21.6524C11.84 22.0189 12.268 21.7388 12.51 21.3139L15.812 15.4916C16.052 15.0667 16.106 14.4971 15.632 14.1306Z" fill="#C48E6A"/>
<path d="M9.78502 14.9806C11.209 12.4687 13.251 13.1013 15.593 14.9129C18.023 16.7899 17.617 19.0987 16.853 20.4458C16.101 21.7718 14.445 23.1421 11.999 21.2512C9.65502 19.4372 8.36102 17.4926 9.78502 14.9806Z" fill="#E0BB95"/>
<path d="M11.426 19.57C11.426 19.57 11.418 19.5443 11.406 19.5023C11.404 19.4906 11.4 19.4813 11.396 19.4649C11.394 19.4486 11.392 19.4299 11.388 19.4089L11.382 19.3435C11.38 19.3202 11.38 19.2992 11.38 19.2758V19.2035L11.386 19.1264C11.388 19.1008 11.392 19.0727 11.398 19.0447C11.402 19.0167 11.408 18.9887 11.414 18.9607C11.43 18.9047 11.444 18.8486 11.468 18.7926C11.488 18.7366 11.518 18.6852 11.546 18.6315C11.578 18.5825 11.608 18.5311 11.646 18.4868C11.68 18.4401 11.72 18.4027 11.758 18.3654C11.778 18.349 11.798 18.3304 11.818 18.3164C11.838 18.3 11.858 18.286 11.878 18.2743C11.898 18.2627 11.918 18.2487 11.936 18.2393C11.956 18.23 11.974 18.2206 11.994 18.2113C12.012 18.2043 12.03 18.195 12.048 18.188C12.066 18.1833 12.082 18.1786 12.098 18.1739C12.114 18.1693 12.128 18.1646 12.142 18.1623C12.156 18.1599 12.168 18.1576 12.18 18.1553C12.226 18.1483 12.252 18.1483 12.252 18.1483C12.336 18.1459 12.406 18.223 12.41 18.321C12.412 18.3817 12.388 18.4354 12.35 18.4681L12.326 18.4891C12.326 18.4891 12.31 18.5031 12.284 18.5218C12.278 18.5265 12.27 18.5311 12.262 18.5381L12.238 18.5591C12.22 18.5732 12.2 18.5895 12.18 18.6105C12.17 18.6198 12.158 18.6292 12.148 18.6385C12.138 18.6502 12.126 18.6619 12.116 18.6712C12.11 18.6759 12.104 18.6829 12.1 18.6875L12.084 18.7062C12.074 18.7202 12.062 18.7319 12.05 18.7436C12.03 18.7716 12.006 18.7996 11.986 18.8299C11.964 18.858 11.946 18.893 11.926 18.9233C11.908 18.956 11.888 18.9887 11.874 19.0237C11.856 19.0564 11.844 19.0914 11.83 19.1264C11.824 19.1428 11.818 19.1615 11.812 19.1778C11.81 19.1871 11.806 19.1941 11.802 19.2035L11.796 19.2292C11.79 19.2455 11.786 19.2618 11.782 19.2758C11.778 19.2922 11.776 19.3062 11.77 19.3202C11.766 19.3342 11.762 19.3482 11.76 19.3622C11.758 19.3739 11.754 19.3856 11.752 19.3972C11.75 19.4089 11.748 19.4182 11.744 19.4276C11.742 19.4393 11.742 19.4533 11.74 19.4626C11.736 19.507 11.73 19.5326 11.73 19.5326C11.712 19.633 11.63 19.6961 11.546 19.675C11.5198 19.6717 11.4948 19.6602 11.4737 19.6417C11.4525 19.6232 11.4361 19.5985 11.426 19.57ZM14.118 15.3935C14.118 15.3935 14.1 15.4075 14.066 15.4309C14.058 15.4356 14.048 15.4426 14.038 15.4496C14.032 15.4566 14.024 15.4636 14.016 15.4706L13.992 15.4916L13.962 15.5196C13.952 15.5289 13.94 15.5383 13.93 15.5476C13.92 15.5593 13.908 15.5686 13.898 15.5803C13.892 15.585 13.886 15.592 13.882 15.5966L13.866 15.6153C13.856 15.6293 13.844 15.641 13.832 15.6527C13.812 15.6807 13.788 15.7087 13.768 15.739C13.746 15.7671 13.728 15.8021 13.708 15.8324C13.69 15.8651 13.67 15.8978 13.656 15.9328C13.638 15.9655 13.626 16.0005 13.612 16.0355C13.606 16.0519 13.6 16.0705 13.594 16.0869C13.592 16.0962 13.588 16.1032 13.584 16.1126L13.578 16.1382C13.574 16.1546 13.568 16.1709 13.564 16.1849C13.56 16.2013 13.558 16.2153 13.552 16.2293C13.544 16.2573 13.538 16.2853 13.534 16.311C13.532 16.3227 13.53 16.3343 13.526 16.346C13.524 16.3577 13.524 16.367 13.522 16.3764C13.516 16.4137 13.512 16.4347 13.512 16.4347L13.504 16.4674C13.482 16.5631 13.4 16.6192 13.318 16.5935C13.2945 16.5861 13.2728 16.5723 13.2547 16.5532C13.2366 16.5342 13.2227 16.5104 13.214 16.4838C13.214 16.4838 13.206 16.4557 13.192 16.4044C13.19 16.3904 13.186 16.3764 13.182 16.3624L13.176 16.311L13.17 16.2526C13.168 16.2316 13.168 16.2106 13.168 16.1873V16.1149L13.174 16.0379C13.176 16.0122 13.18 15.9842 13.186 15.9561C13.192 15.9281 13.196 15.9001 13.202 15.8721C13.218 15.8161 13.232 15.76 13.256 15.704C13.276 15.648 13.306 15.5966 13.332 15.5429C13.364 15.4939 13.394 15.4426 13.432 15.3982C13.466 15.3515 13.506 15.3142 13.544 15.2768C13.564 15.2581 13.584 15.2418 13.604 15.2278C13.624 15.2114 13.644 15.1974 13.664 15.1858C13.684 15.1741 13.704 15.1624 13.722 15.1507C13.742 15.1414 13.76 15.1321 13.78 15.1227C13.8 15.1157 13.816 15.1064 13.834 15.0994C13.854 15.0924 13.87 15.0877 13.888 15.083C13.904 15.0784 13.92 15.0737 13.934 15.069C13.948 15.0667 13.956 15.0667 13.966 15.0644C14.004 15.0597 14.028 15.0597 14.028 15.0597C14.114 15.0597 14.186 15.1414 14.186 15.2418C14.188 15.3025 14.16 15.3585 14.118 15.3935Z" fill="#AB872F"/>
<path d="M13.2541 18.209C13.6221 18.4985 13.7141 19.0914 13.2881 19.8268C12.8681 20.5528 12.3561 20.6859 11.9881 20.3964C11.6201 20.107 11.4341 19.4813 11.8761 18.7202C12.3041 17.9779 12.8861 17.9195 13.2541 18.209Z" fill="#01579B"/>
<path d="M13.11 19.6892C13.3547 19.2692 13.3347 18.7553 13.0653 18.5414C12.7958 18.3275 12.379 18.4946 12.1343 18.9146C11.8895 19.3347 11.9095 19.8486 12.179 20.0625C12.4484 20.2764 12.8652 20.1093 13.11 19.6892Z" fill="#B3E5FC"/>
<mask id="mask0_580_497" style="mask-type:luminance" maskUnits="userSpaceOnUse" x="11" y="18" width="3" height="3">
<path d="M13.1102 19.689C13.3549 19.2689 13.3349 18.755 13.0655 18.5411C12.796 18.3272 12.3792 18.4943 12.1344 18.9144C11.8897 19.3344 11.9097 19.8483 12.1791 20.0622C12.4486 20.2761 12.8654 20.109 13.1102 19.689Z" fill="white"/>
</mask>
<g mask="url(#mask0_580_497)">
<path d="M13.206 20.4335L12.26 18.5402L12.376 17.8258L13.322 19.7191L13.206 20.4335Z" fill="white"/>
</g>
<path d="M14.9001 15.3678C15.2681 15.6573 15.3601 16.2502 14.9341 16.9856C14.5141 17.7116 14.0021 17.8447 13.6341 17.5552C13.2661 17.2657 13.0601 16.6518 13.5001 15.8907C13.9301 15.1483 14.5321 15.0783 14.9001 15.3678Z" fill="#01579B"/>
<path d="M14.7562 16.8465C15.0009 16.4264 14.9809 15.9125 14.7115 15.6986C14.442 15.4847 14.0252 15.6518 13.7804 16.0718C13.5357 16.4919 13.5557 17.0058 13.8251 17.2197C14.0946 17.4336 14.5114 17.2665 14.7562 16.8465Z" fill="#B3E5FC"/>
<mask id="mask1_580_497" style="mask-type:luminance" maskUnits="userSpaceOnUse" x="13" y="15" width="2" height="3">
<path d="M14.756 16.8467C15.0008 16.4266 14.9808 15.9127 14.7113 15.6988C14.4419 15.4849 14.0251 15.652 13.7803 16.0721C13.5356 16.4921 13.5556 17.006 13.825 17.2199C14.0945 17.4339 14.5113 17.2667 14.756 16.8467Z" fill="white"/>
</mask>
<g mask="url(#mask1_580_497)">
<path d="M14.8519 17.5928L13.9059 15.6995L14.0219 14.9828L14.9679 16.8761L14.8519 17.5928Z" fill="white"/>
</g>
<path d="M13.91 17.6065L13.4 18.4866L13.024 18.1902L13.534 17.31L13.91 17.6065ZM14.858 14.3989C15.11 14.7491 15.13 15.188 15.05 15.6362L14.674 15.342C14.816 14.9778 14.788 14.5646 14.482 14.1047L14.858 14.3989ZM11.204 20.7138C11.578 20.8538 11.934 20.7114 12.26 20.4546L11.884 20.1605C11.648 20.4523 11.308 20.576 10.828 20.4196L11.204 20.7138Z" fill="#01579B"/>
<path d="M8.83208 14.2217C8.83208 14.2217 8.80208 14.2707 8.79008 14.2917C8.77808 14.3127 8.75208 14.3618 8.75208 14.3618C7.35008 17.0908 8.46808 19.0308 9.29008 19.8362C10.2021 20.7303 11.0201 21.1599 11.0201 21.1599C11.0201 21.1599 11.0041 21.0852 10.9941 20.9638C10.9821 20.8331 11.0021 20.714 11.0021 20.714C11.0021 20.714 10.7141 19.4207 10.8581 18.3585C11.0061 17.2729 12.0161 15.508 12.7181 14.9897C13.4621 14.4411 13.8921 14.2007 14.7661 14.1423C14.7661 14.1423 14.8541 14.0746 14.9621 14.0349C15.0641 13.9976 15.1281 13.9859 15.1281 13.9859C15.1281 13.9859 14.4481 13.3252 13.4001 12.6599C12.6041 12.1556 10.5341 11.6257 8.83208 14.2217Z" fill="url(#paint1_linear_580_497)"/>
<path d="M14.5339 18.1879C14.5259 18.1949 14.5179 18.2043 14.5099 18.2136L14.1419 18.8906C14.1379 18.9023 14.1339 18.914 14.1319 18.9256C14.1199 19.0027 14.1559 19.0774 14.2299 19.0914C14.3039 19.1054 14.5399 19.0914 14.6879 18.8182C14.8359 18.5474 14.7459 18.2906 14.7039 18.2183C14.6619 18.1482 14.5879 18.1412 14.5339 18.1879Z" fill="#C48E6A"/>
<path d="M15.616 19.5986C15.8274 19.2696 15.8607 18.8818 15.6902 18.7325C15.5197 18.5831 15.21 18.7287 14.9985 19.0577C14.787 19.3866 14.7538 19.7744 14.9243 19.9238C15.0948 20.0731 15.4045 19.9275 15.616 19.5986Z" fill="#6D4C41"/>
<path d="M27.612 19.7008C26.298 19.7008 25.626 21.3793 24.412 21.3793C23.2 21.3793 22.526 19.7008 21.212 19.7008C19.898 19.7008 19.226 21.3793 18.012 21.3793C16.798 21.3793 16.126 19.7008 14.812 19.7008C13.498 19.7008 12.824 21.3793 11.612 21.3793C10.4 21.3793 9.726 19.7008 8.412 19.7008C7.41 19.7008 6.78 20.6766 6 21.1389L6.63158 28.3484H29.3684L30 21.1249C29.234 20.658 28.606 19.7008 27.612 19.7008Z" fill="#039BE5"/>
<path d="M27.5397 24.799C26.2298 24.799 25.5598 23.0006 24.3495 23.0006C23.1413 23.0006 22.4693 24.799 21.1594 24.799C19.8494 24.799 19.1794 23.0006 17.9692 23.0006C16.7589 23.0006 16.089 24.799 14.779 24.799C13.469 24.799 12.7971 23.0006 11.5888 23.0006C10.3805 23.0006 9.70859 24.799 8.39862 24.799C7.40169 24.799 6.77561 23.7585 6 23.2607L6.63158 28.2105H29.3684L29.9264 23.2657C29.1607 23.766 28.5327 24.799 27.5397 24.799Z" fill="#29B6F6"/>
</g>
<defs>
<filter id="filter0_d_580_497" x="0" y="0" width="40" height="40" filterUnits="userSpaceOnUse" color-interpolation-filters="sRGB">
<feFlood flood-opacity="0" result="BackgroundImageFix"/>
<feColorMatrix in="SourceAlpha" type="matrix" values="0 0 0 0 0 0 0 0 0 0 0 0 0 0 0 0 0 0 127 0" result="hardAlpha"/>
<feOffset dx="2" dy="2"/>
<feGaussianBlur stdDeviation="2"/>
<feComposite in2="hardAlpha" operator="out"/>
<feColorMatrix type="matrix" values="0 0 0 0 0 0 0 0 0 0 0 0 0 0 0 0 0 0 0.25 0"/>
<feBlend mode="normal" in2="BackgroundImageFix" result="effect1_dropShadow_580_497"/>
<feBlend mode="normal" in="SourceGraphic" in2="effect1_dropShadow_580_497" result="shape"/>
</filter>
<filter id="filter1_d_580_497" x="3" y="5" width="32" height="28.3484" filterUnits="userSpaceOnUse" color-interpolation-filters="sRGB">
<feFlood flood-opacity="0" result="BackgroundImageFix"/>
<feColorMatrix in="SourceAlpha" type="matrix" values="0 0 0 0 0 0 0 0 0 0 0 0 0 0 0 0 0 0 127 0" result="hardAlpha"/>
<feOffset dx="1" dy="1"/>
<feGaussianBlur stdDeviation="2"/>
<feComposite in2="hardAlpha" operator="out"/>
<feColorMatrix type="matrix" values="0 0 0 0 0 0 0 0 0 0 0 0 0 0 0 0 0 0 0.25 0"/>
<feBlend mode="normal" in2="BackgroundImageFix" result="effect1_dropShadow_580_497"/>
<feBlend mode="normal" in="SourceGraphic" in2="effect1_dropShadow_580_497" result="shape"/>
</filter>
<linearGradient id="paint0_linear_580_497" x1="6.15344" y1="17.9472" x2="27.8424" y2="17.9472" gradientUnits="userSpaceOnUse">
<stop stop-color="#E0BB95"/>
<stop offset="1" stop-color="#CCA47A"/>
</linearGradient>
<linearGradient id="paint1_linear_580_497" x1="9.31748" y1="15.046" x2="12.2642" y2="16.4455" gradientUnits="userSpaceOnUse">
<stop stop-color="#00BFA5"/>
<stop offset="1" stop-color="#00AB94"/>
</linearGradient>
</defs>
</svg>
