<svg width="40" height="40" viewBox="0 0 40 40" fill="none" xmlns="http://www.w3.org/2000/svg">
<g filter="url(#filter0_d_580_559)">
<circle cx="18" cy="18" r="16" fill="#F7E1AE"/>
<circle cx="18" cy="18" r="15.75" stroke="#7ABD87" stroke-width="0.5"/>
</g>
<path d="M11.9902 14.2369L13.3566 13.8068L22.0869 14.3634L23.0991 15.0973C23.0991 15.0973 25.8321 17.4002 27.8058 18.3111V20.7524H7.03037L6.78729 18.9843C6.78729 18.9843 10.3056 15.9552 11.9902 14.2369Z" fill="#4673AA"/>
<path d="M27.8058 19.6946V18.3112C25.8321 17.4002 23.0991 15.0974 23.0991 15.0974L22.0869 14.3636L21.3141 14.3143C22.9881 16.0899 25.2572 18.1849 27.8058 19.6946Z" fill="#AEB7D8"/>
<path d="M31.2059 20.7523H5.79413V26.089H31.2059V20.7523Z" fill="#B5D4F4"/>
<path d="M9.39148 19.5555C10.6926 18.7472 11.5813 19.4812 11.8691 19.7672C12.0044 19.8866 12.1499 19.9938 12.304 20.0876C12.6938 20.3517 13.5688 20.5561 13.5688 20.5561C13.8404 20.641 14.1177 20.7067 14.3986 20.7525H5.79413C5.79413 20.7525 6.1163 19.4847 7.03057 18.7683C7.05979 18.7454 7.08952 18.7235 7.11975 18.7027C7.11975 18.7027 8.18275 18.3771 8.69893 18.709C9.00371 18.9216 9.24347 19.2147 9.39148 19.5555Z" fill="#698779"/>
<path d="M31.2059 20.7524C31.1481 20.3816 31.0118 20.0273 30.806 19.7135C30.806 19.7135 30.0813 18.8399 29.0262 18.785C29.0262 18.785 28.6432 17.7234 27.596 17.722C27.416 17.7243 27.2382 17.7615 27.0723 17.8315C26.8959 17.8962 26.734 17.9951 26.5959 18.1225C26.4578 18.25 26.3462 18.4034 26.2674 18.574C26.2674 18.574 24.9182 17.8933 24.1338 19.2773C24.1338 19.2773 23.4464 18.8301 22.7504 19.4649C22.6731 19.5371 22.6 19.6138 22.5316 19.6946C22.3307 19.9051 22.1092 20.095 21.8705 20.2616C21.5211 20.5195 21.0626 20.7524 20.5433 20.7524H31.2059Z" fill="#698779"/>
<path d="M16.004 10.3145H18.2588C18.3797 10.3145 18.4992 10.3403 18.6093 10.3903C18.7194 10.4403 18.8175 10.5133 18.897 10.6043C19.5547 11.3568 21.3922 13.4314 23.099 15.0973C22.7433 14.9753 22.3654 14.9317 21.9912 14.9693C21.6171 15.0069 21.2554 15.125 20.9311 15.3153C20.6164 15.4941 20.2482 15.5547 19.8928 15.4863C19.6958 15.4499 19.5057 15.3826 19.3297 15.2871C19.1539 15.1922 18.9599 15.136 18.7606 15.1222C18.5613 15.1084 18.3614 15.1374 18.1742 15.2072C17.9958 15.2721 17.8271 15.3612 17.6728 15.4719C17.2927 15.752 16.8258 15.8888 16.3546 15.8582C15.9899 15.8293 15.6404 15.6992 15.3457 15.4825C15.1585 15.3503 14.9436 15.2625 14.7174 15.2258C14.1524 15.1294 13.5715 15.2082 13.0526 15.4515C13.0526 15.4515 13.1032 14.2365 11.9898 14.2365C11.9898 14.2365 14.0393 12.2983 15.3375 10.6377C15.4167 10.5368 15.5179 10.4551 15.6334 10.3991C15.7489 10.3431 15.8756 10.3142 16.004 10.3145Z" fill="#C4DFE8"/>
<path d="M23.0991 15.0972C21.3922 13.431 19.5547 11.3569 18.8971 10.6043C18.8175 10.5133 18.7194 10.4403 18.6093 10.3904C18.4992 10.3404 18.3797 10.3146 18.2588 10.3146H16.004C15.9684 10.3148 15.9329 10.3171 15.8976 10.3217L18.0299 10.7532C18.2467 10.7969 18.4399 10.9184 18.5734 11.0946C19.6172 12.4576 20.7455 13.7538 21.9517 14.9755C22.3384 14.9257 22.7315 14.9674 23.0991 15.0972Z" fill="#FFFAFF"/>
<path d="M11.0037 8.01795C11.1298 8.21807 11.2014 8.5489 11.2466 8.85265C11.2466 8.85265 12.0344 8.76577 12.8297 9.59268C13.1264 9.9012 13.6093 10.0818 14.0188 10.2065C14.0486 10.2156 14.079 10.2243 14.1102 10.2327C14.1189 10.2349 14.1266 10.2401 14.1317 10.2475C14.1368 10.2549 14.1391 10.2639 14.138 10.2729C14.1369 10.2818 14.1325 10.29 14.1258 10.296C14.119 10.3019 14.1103 10.3051 14.1013 10.3051H7.25829C7.23291 10.3051 7.20781 10.2998 7.18461 10.2896C7.1614 10.2793 7.14062 10.2642 7.12361 10.2454C7.1066 10.2266 7.09373 10.2044 7.08585 10.1802C7.07797 10.1561 7.07525 10.1306 7.07787 10.1054C7.12552 9.6466 7.37574 8.54302 8.67945 8.36625C8.67945 8.36625 8.68342 8.34616 8.69287 8.31066C8.74256 8.11747 8.83592 7.93825 8.96576 7.78681C9.0956 7.63537 9.25846 7.51574 9.4418 7.43713C9.4418 7.43713 10.476 7.18031 11.0037 8.01795Z" fill="#71AACC"/>
<path d="M24.0243 11.5256H30.988C31.0072 11.5257 31.0259 11.5193 31.041 11.5075C31.0561 11.4956 31.0667 11.4791 31.0713 11.4604C31.0758 11.4418 31.0739 11.4221 31.0659 11.4047C31.0579 11.3873 31.0443 11.373 31.0272 11.3643C30.6283 11.167 30.2526 10.9261 29.9068 10.646C29.9068 10.646 29.3362 9.54853 28.3614 9.80011C28.3401 9.64944 28.2998 9.50205 28.2417 9.36144C28.1778 9.20096 28.0832 9.05452 27.9632 8.93039C27.9632 8.93039 26.9366 8.24976 25.8853 9.53178C25.8792 9.53916 25.0838 9.62707 24.9389 10.3796C24.8833 10.6676 24.6563 10.9116 24.4394 11.1087C24.3081 11.2279 24.1584 11.3251 23.9962 11.3968C23.9823 11.4033 23.9709 11.4143 23.9641 11.428C23.9572 11.4418 23.9552 11.4575 23.9585 11.4725C23.9618 11.4875 23.9701 11.501 23.982 11.5106C23.994 11.5203 24.0089 11.5256 24.0243 11.5256Z" fill="#71AACC"/>
<path d="M24.4791 22.9402H15.4307C15.3465 22.9402 15.2657 22.9068 15.2061 22.8472C15.1466 22.7876 15.1131 22.7068 15.1131 22.6226C15.1131 22.5383 15.1466 22.4575 15.2061 22.398C15.2657 22.3384 15.3465 22.3049 15.4307 22.3049H24.4791C24.5633 22.3049 24.6441 22.3384 24.7037 22.398C24.7633 22.4575 24.7967 22.5383 24.7967 22.6226C24.7967 22.7068 24.7633 22.7876 24.7037 22.8472C24.6441 22.9068 24.5633 22.9402 24.4791 22.9402Z" fill="#6C9BD3"/>
<path d="M13.4226 22.9402H13.2571C13.1729 22.9402 13.0921 22.9068 13.0325 22.8472C12.9729 22.7876 12.9395 22.7068 12.9395 22.6226C12.9395 22.5383 12.9729 22.4575 13.0325 22.398C13.0921 22.3384 13.1729 22.3049 13.2571 22.3049H13.4226C13.5068 22.3049 13.5876 22.3384 13.6472 22.398C13.7068 22.4575 13.7402 22.5383 13.7402 22.6226C13.7402 22.7068 13.7068 22.7876 13.6472 22.8472C13.5876 22.9068 13.5068 22.9402 13.4226 22.9402Z" fill="#6C9BD3"/>
<path d="M11.0835 22.3049H5.79413V22.9402H11.0835C11.1678 22.9402 11.2485 22.9068 11.3081 22.8472C11.3677 22.7876 11.4012 22.7068 11.4012 22.6226C11.4012 22.5383 11.3677 22.4575 11.3081 22.398C11.2485 22.3384 11.1678 22.3049 11.0835 22.3049Z" fill="#6C9BD3"/>
<path d="M13.053 15.4515L14.3809 13.8456C14.4017 13.8205 14.4307 13.8034 14.4628 13.7975C14.4949 13.7915 14.5281 13.7971 14.5565 13.8131C14.585 13.8291 14.6069 13.8546 14.6185 13.8852C14.63 13.9157 14.6305 13.9493 14.6198 13.9802L13.9638 15.8636L13.053 15.4515Z" fill="#4673AA"/>
<path d="M20.8202 15.3729L19.8148 13.5029C19.8032 13.4814 19.7999 13.4564 19.8054 13.4326C19.8109 13.4087 19.8249 13.3878 19.8448 13.3735C19.8647 13.3593 19.8891 13.3528 19.9134 13.3552C19.9377 13.3577 19.9603 13.3689 19.977 13.3868L22.0243 15.5872L20.8202 15.3729Z" fill="#4673AA"/>
<path d="M17.673 15.4719L17.4386 17.2754C17.4346 17.3061 17.4198 17.3343 17.3968 17.355C17.3739 17.3757 17.3443 17.3875 17.3134 17.3883C17.2826 17.3891 17.2524 17.3789 17.2284 17.3595C17.2044 17.34 17.1881 17.3126 17.1825 17.2823L16.8481 15.4717L17.673 15.4719Z" fill="#C4DFE8"/>
<path d="M26.3845 22.9112L25.0753 23.9654C24.5881 24.3577 23.9813 24.5717 23.3557 24.5717H5.79413V25.7858H31.2059V22.3049H28.1041C27.4785 22.305 26.8717 22.5189 26.3845 22.9112Z" fill="#6C9BD3"/>
<path d="M27.0979 24.5715H19.4627C19.3785 24.5715 19.2977 24.538 19.2381 24.4784C19.1785 24.4188 19.1451 24.338 19.1451 24.2538C19.1451 24.1696 19.1785 24.0888 19.2381 24.0292C19.2977 23.9696 19.3785 23.9362 19.4627 23.9362H27.0979C27.1821 23.9362 27.2629 23.9696 27.3225 24.0292C27.382 24.0888 27.4155 24.1696 27.4155 24.2538C27.4155 24.338 27.382 24.4188 27.3225 24.4784C27.2629 24.538 27.1821 24.5715 27.0979 24.5715Z" fill="#B5D4F4"/>
<path d="M28.9696 24.5715H28.749C28.6648 24.5715 28.584 24.538 28.5244 24.4784C28.4649 24.4188 28.4314 24.338 28.4314 24.2538C28.4314 24.1696 28.4649 24.0888 28.5244 24.0292C28.584 23.9696 28.6648 23.9362 28.749 23.9362H28.9696C29.0539 23.9362 29.1347 23.9696 29.1943 24.0292C29.2538 24.0888 29.2873 24.1696 29.2873 24.2538C29.2873 24.338 29.2538 24.4188 29.1943 24.4784C29.1347 24.538 29.0539 24.5715 28.9696 24.5715Z" fill="#B5D4F4"/>
<path d="M12.8374 9.96136C12.8063 9.953 12.7758 9.94429 12.746 9.93524C12.3373 9.80647 11.9683 9.57537 11.674 9.26389C10.8787 8.43697 10.1216 8.50289 10.1216 8.50289C10.0848 8.23595 10.0018 7.97745 9.87642 7.73894C9.52018 7.07578 8.76013 6.90989 8.16907 7.16654C8.1782 7.16551 9.5494 7.01519 9.69703 8.98444C9.69703 8.98444 10.5547 8.81839 11.1291 9.42486C11.293 9.603 11.4838 9.75451 11.6944 9.87393C11.7919 9.92753 11.9025 9.98296 12.0217 10.0338H12.8286C12.8375 10.0338 12.8462 10.0305 12.8529 10.0245C12.8596 10.0186 12.8639 10.0104 12.865 10.0015C12.8661 9.9926 12.8639 9.98362 12.8588 9.97623C12.8537 9.96884 12.8461 9.96355 12.8374 9.96136Z" fill="#DFE4F9"/>
<path d="M25.3324 10.8662C25.4489 9.73482 26.4139 9.63532 26.4139 9.63532C26.8565 8.50434 27.9307 8.91863 27.9625 8.9311C27.3157 8.26793 26.0765 8.4613 25.7548 9.4537C25.7518 9.46284 25.7489 9.47197 25.7461 9.48126C25.7461 9.48126 24.9869 9.60109 24.842 10.3536C24.7928 10.6424 24.6513 10.9074 24.4388 11.109C24.3075 11.2281 24.1579 11.3254 23.9957 11.3971C23.9817 11.4035 23.9703 11.4146 23.9635 11.4284C23.9566 11.4422 23.9547 11.4579 23.958 11.473C23.9613 11.488 23.9697 11.5015 23.9818 11.5111C23.9938 11.5207 24.0088 11.5259 24.0242 11.5259H24.9072C25.0234 11.4554 25.1221 11.3593 25.1958 11.245C25.2695 11.1307 25.3162 11.0012 25.3324 10.8662Z" fill="#DFE4F9"/>
<path d="M29.0965 18.7411C29.0965 18.7411 28.6631 17.6577 27.6159 17.6564C27.4316 17.6575 27.2491 17.6934 27.0782 17.7624C26.8143 17.8669 26.427 18.0864 26.237 18.5134C26.237 18.5134 24.8705 17.8203 24.0861 19.2043C24.0861 19.2043 23.3859 18.8242 22.6897 19.4599C22.6265 19.5193 22.5676 19.5832 22.5134 19.651C22.324 19.8792 22.1081 20.0841 21.8702 20.2612C22.1929 20.1547 22.5593 19.9846 22.827 19.7169C22.9546 19.5904 23.1183 19.5067 23.2955 19.4773C23.6596 19.4126 24.0346 19.4903 24.343 19.6944C24.343 19.6944 25.143 18.2937 26.838 19.2043C26.838 19.2043 26.8564 18.4605 27.5592 18.3114C28.262 18.1622 28.7908 19.2741 28.7908 19.2741C28.7908 19.2741 29.9411 19.021 30.8057 19.7133C30.5056 19.259 29.9865 18.8123 29.0965 18.7411Z" fill="#B0D1BA"/>
<path d="M12.3402 19.994C12.2017 19.8972 12.0725 19.7876 11.9544 19.6667C11.667 19.3809 10.7139 18.6118 9.41277 19.4201C9.2826 19.1003 9.0595 18.8269 8.77232 18.6353C8.25614 18.3033 7.62426 18.3555 7.12 18.7028C7.66222 18.6059 8.72459 18.6218 9.20058 20.0556C9.20058 20.0556 10.2901 19.128 11.3857 19.9369C11.6808 20.1628 12.0128 20.3356 12.3671 20.4478C12.755 20.57 13.1647 20.6069 13.5682 20.5558C13.1339 20.4287 12.7203 20.2395 12.3402 19.994Z" fill="#B0D1BA"/>
<defs>
<filter id="filter0_d_580_559" x="0" y="0" width="40" height="40" filterUnits="userSpaceOnUse" color-interpolation-filters="sRGB">
<feFlood flood-opacity="0" result="BackgroundImageFix"/>
<feColorMatrix in="SourceAlpha" type="matrix" values="0 0 0 0 0 0 0 0 0 0 0 0 0 0 0 0 0 0 127 0" result="hardAlpha"/>
<feOffset dx="2" dy="2"/>
<feGaussianBlur stdDeviation="2"/>
<feComposite in2="hardAlpha" operator="out"/>
<feColorMatrix type="matrix" values="0 0 0 0 0 0 0 0 0 0 0 0 0 0 0 0 0 0 0.25 0"/>
<feBlend mode="normal" in2="BackgroundImageFix" result="effect1_dropShadow_580_559"/>
<feBlend mode="normal" in="SourceGraphic" in2="effect1_dropShadow_580_559" result="shape"/>
</filter>
</defs>
</svg>
