<svg width="40" height="40" viewBox="0 0 40 40" fill="none" xmlns="http://www.w3.org/2000/svg">
<g filter="url(#filter0_d_580_526)">
<circle cx="18" cy="18" r="15.75" fill="#F7E1AE" stroke="#7ABD87" stroke-width="0.5"/>
</g>
<path d="M19.4606 7.10083C19.8362 7.10083 20.1407 7.46336 20.1407 7.91116C20.1407 8.35896 19.8362 8.7215 19.4606 8.7215C19.0855 8.7215 18.781 8.35896 18.781 7.91116C18.781 7.46336 19.0855 7.10083 19.4606 7.10083Z" fill="#AED3E5"/>
<path d="M19.6231 7.67152C19.8295 7.67152 20.0141 7.78147 20.1388 7.95445C20.1395 7.94002 20.1407 7.92583 20.1407 7.91116C20.1407 7.46336 19.8362 7.10083 19.4606 7.10083C19.0855 7.10083 18.781 7.46336 18.781 7.91116C18.781 8.11288 18.8432 8.29683 18.9453 8.43863C18.9643 8.01116 19.2603 7.67152 19.6231 7.67152Z" fill="#95C0D1"/>
<path d="M15.1558 6.56055C15.6564 6.56055 16.0619 7.04412 16.0619 7.64099C16.0619 8.23786 15.6564 8.72144 15.1558 8.72144C14.6553 8.72144 14.2497 8.23786 14.2497 7.64099C14.2497 7.04412 14.6553 6.56055 15.1558 6.56055Z" fill="#AED3E5"/>
<path d="M14.4995 8.29689C14.4995 7.70002 14.9051 7.21645 15.4057 7.21645C15.6621 7.21645 15.8932 7.34393 16.058 7.54803C16.0184 6.99481 15.6301 6.56055 15.1558 6.56055C14.6553 6.56055 14.2497 7.04412 14.2497 7.64099C14.2497 7.93203 14.3466 8.19559 14.5035 8.38985C14.5013 8.35914 14.4995 8.32826 14.4995 8.29689Z" fill="#95C0D1"/>
<path d="M18.392 10.6312C18.969 11.3187 18.7306 12.3867 18.7415 13.7491C17.5984 13.7366 16.7037 14.0199 16.1266 13.3318C15.8081 12.9519 15.8036 12.3414 16.1161 11.9687C16.3992 11.6312 16.6847 11.6348 17.1148 11.8101C16.9678 11.2973 16.9653 10.9562 17.2484 10.6187C17.5613 10.2455 18.0734 10.2514 18.392 10.6312Z" fill="#EF3E5C"/>
<path d="M18.392 10.6312C18.0735 10.2514 17.5615 10.2455 17.2484 10.6187C17.1091 10.7848 17.0392 10.9518 17.0215 11.1397C17.3283 10.935 17.7269 10.9913 17.992 11.3073C18.4707 11.8776 18.3882 12.71 18.3524 13.7549C18.4787 13.7503 18.6084 13.7477 18.7416 13.7491C18.7306 12.3867 18.9691 11.3187 18.392 10.6312Z" fill="#E42A53"/>
<path d="M10.625 17.9065C8.62322 17.9071 7 15.9716 7 13.5841C7 11.9569 7.7551 10.5395 8.86976 9.80253C8.82375 9.58847 8.80425 9.36189 8.81575 9.12815C8.87031 8.05426 9.59636 7.18013 10.496 7.10619C11.5556 7.01854 12.4378 8.01729 12.4378 9.26171C12.4378 9.44835 12.4178 9.62961 12.3803 9.80253C13.4824 10.5312 14.2325 11.9241 14.2495 13.528C14.275 15.8827 12.6873 17.8498 10.7126 17.9052C10.683 17.9058 10.654 17.9065 10.625 17.9065Z" fill="#8EAA39"/>
<path d="M7.65629 13.9692C7.65629 12.342 8.41139 10.9246 9.52605 10.1877C9.48004 9.97359 9.46054 9.74701 9.47204 9.51327C9.5266 8.43939 10.2526 7.56525 11.1523 7.49131C11.3553 7.4745 11.5516 7.49787 11.7367 7.55494C11.3984 7.24142 10.9646 7.06742 10.496 7.10618C9.59641 7.18012 8.87031 8.05425 8.81575 9.12814C8.8043 9.36188 8.82375 9.58846 8.86976 9.80252C7.7551 10.5395 7 11.9569 7 13.5841C7 15.443 7.98419 17.0275 9.36468 17.6378C8.33918 16.8744 7.65629 15.5172 7.65629 13.9692Z" fill="#809630"/>
<path d="M23.9158 5.00012C25.6306 5.34298 26.9373 7.11987 26.9373 9.26168C26.9373 11.6492 25.3145 13.5841 23.3123 13.5841C22.1446 13.5841 21.1065 12.9252 20.4439 11.9026C20.6399 11.9419 20.8415 11.9634 21.047 11.9634C23.0488 11.9634 24.672 10.0285 24.672 7.64101C24.6719 6.64643 24.3894 5.73056 23.9158 5.00012Z" fill="#FFD15C"/>
<path d="M21.0105 12.3579C21.2065 12.3972 21.4081 12.4187 21.6136 12.4187C23.6154 12.4187 25.2386 10.4838 25.2386 8.09632C25.2386 7.10174 24.956 6.18587 24.4825 5.45543C24.8857 5.53611 25.266 5.69686 25.6125 5.92225C25.134 5.45341 24.5531 5.12748 23.9157 5C24.3893 5.73043 24.6718 6.64631 24.6718 7.64089C24.6718 10.0284 23.0486 11.9633 21.0468 11.9633C20.8413 11.9633 20.6398 11.9418 20.4437 11.9024C20.7509 12.3765 21.1388 12.7722 21.5828 13.0605C21.3707 12.8528 21.1785 12.6171 21.0105 12.3579Z" fill="#E8B74B"/>
<path d="M26.9371 25.4706H25.5779V28.1724H26.9371V25.4706Z" fill="#743629"/>
<path d="M25.9363 25.9277H26.9371V25.4706H25.5779V28.1724H25.9363V25.9277Z" fill="#632D24"/>
<path d="M16.5158 25.4706H15.1561V28.1724H16.5158V25.4706Z" fill="#743629"/>
<path d="M15.5395 25.9973H16.5158V25.4706H15.1561V28.1724H15.5395V25.9973Z" fill="#632D24"/>
<path d="M28.7497 23.3099V25.4708H26.9369H25.5777H16.5155H15.1558H14.2497V23.3099H16.5155H26.4839H28.7497Z" fill="#924B35"/>
<path d="M14.6831 23.8864H16.9489H26.9172H28.7497V23.3099H26.4839H16.5155H14.2497V25.4708H14.6831V23.8864Z" fill="#743629"/>
<path d="M28.2971 19.2857H14.7032C14.5651 19.2857 14.4532 19.1523 14.4532 18.9876C14.4532 18.8229 14.5651 18.6895 14.7032 18.6895H28.2971C28.4352 18.6895 28.5471 18.8229 28.5471 18.9876C28.5471 19.1523 28.4352 19.2857 28.2971 19.2857Z" fill="#743629"/>
<path d="M27.8438 17.1241H15.156C15.018 17.1241 14.906 16.9907 14.906 16.826C14.906 16.6613 15.018 16.5278 15.156 16.5278H27.8438C27.9819 16.5278 28.0938 16.6613 28.0938 16.826C28.0938 16.9906 27.9819 17.1241 27.8438 17.1241Z" fill="#743629"/>
<path d="M28.2971 21.4466H14.7032C14.5651 21.4466 14.4532 21.3132 14.4532 21.1485C14.4532 20.9838 14.5651 20.8503 14.7032 20.8503H28.2971C28.4352 20.8503 28.5471 20.9838 28.5471 21.1485C28.5471 21.3132 28.4352 21.4466 28.2971 21.4466Z" fill="#743629"/>
<path d="M26.484 23.6078C26.3459 23.6078 26.2339 23.4744 26.2339 23.3097V15.7454C26.2339 15.5808 26.3459 15.4473 26.484 15.4473C26.6221 15.4473 26.734 15.5808 26.734 15.7454V23.3097C26.734 23.4743 26.6221 23.6078 26.484 23.6078Z" fill="#743629"/>
<path d="M16.5158 23.6078C16.3777 23.6078 16.2658 23.4744 16.2658 23.3097V15.7454C16.2658 15.5808 16.3777 15.4473 16.5158 15.4473C16.6539 15.4473 16.7659 15.5808 16.7659 15.7454V23.3097C16.7659 23.4743 16.6539 23.6078 16.5158 23.6078Z" fill="#743629"/>
<path d="M10.6249 15.5035C10.5608 15.5035 10.4968 15.4745 10.448 15.4163C10.3504 15.2998 10.3504 15.111 10.448 14.9946L12.2608 12.8331C12.3584 12.7168 12.5167 12.7168 12.6144 12.8331C12.712 12.9496 12.712 13.1384 12.6144 13.2548L10.8016 15.4163C10.7528 15.4745 10.6888 15.5035 10.6249 15.5035Z" fill="#743629"/>
<path d="M10.6246 14.4229C10.577 14.4229 10.5288 14.4067 10.4861 14.3727L9.12687 13.2917C9.012 13.2003 8.981 13.0152 9.05761 12.8782C9.13422 12.7412 9.28949 12.7042 9.40436 12.7957L10.7636 13.8767C10.8785 13.968 10.9095 14.1532 10.8329 14.2902C10.7847 14.3763 10.7054 14.4229 10.6246 14.4229Z" fill="#743629"/>
<path d="M10.6249 28.4706C10.4867 28.4706 10.3748 28.3371 10.3748 28.1724V11.9633C10.3748 11.7987 10.4867 11.6652 10.6249 11.6652C10.7629 11.6652 10.8749 11.7987 10.8749 11.9633V28.1724C10.8749 28.3371 10.7629 28.4706 10.6249 28.4706Z" fill="#924B35"/>
<path d="M28.7499 28.4705H7.45298C7.31491 28.4705 7.20294 28.3371 7.20294 28.1724C7.20294 28.0077 7.31491 27.8743 7.45298 27.8743H28.7499C28.888 27.8743 28.9999 28.0077 28.9999 28.1724C28.9999 28.3371 28.888 28.4705 28.7499 28.4705Z" fill="#415A6B"/>
<path d="M8.8129 28.4706C8.67478 28.4706 8.56287 28.3371 8.56287 28.1724V22.769C8.56287 22.6043 8.67478 22.4708 8.8129 22.4708C8.95097 22.4708 9.06293 22.6043 9.06293 22.769V28.1724C9.06293 28.3371 8.95097 28.4706 8.8129 28.4706Z" fill="#415A6B"/>
<defs>
<filter id="filter0_d_580_526" x="0" y="0" width="40" height="40" filterUnits="userSpaceOnUse" color-interpolation-filters="sRGB">
<feFlood flood-opacity="0" result="BackgroundImageFix"/>
<feColorMatrix in="SourceAlpha" type="matrix" values="0 0 0 0 0 0 0 0 0 0 0 0 0 0 0 0 0 0 127 0" result="hardAlpha"/>
<feOffset dx="2" dy="2"/>
<feGaussianBlur stdDeviation="2"/>
<feComposite in2="hardAlpha" operator="out"/>
<feColorMatrix type="matrix" values="0 0 0 0 0 0 0 0 0 0 0 0 0 0 0 0 0 0 0.25 0"/>
<feBlend mode="normal" in2="BackgroundImageFix" result="effect1_dropShadow_580_526"/>
<feBlend mode="normal" in="SourceGraphic" in2="effect1_dropShadow_580_526" result="shape"/>
</filter>
</defs>
</svg>
