<svg width="43" height="43" viewBox="0 0 43 43" fill="none" xmlns="http://www.w3.org/2000/svg">
<g filter="url(#filter0_d_402_517)">
<path d="M2 5C2 2.23858 4.23858 0 7 0H32C34.7614 0 37 2.23858 37 5V30C37 32.7614 34.7614 35 32 35H7C4.23858 35 2 32.7614 2 30V5Z" fill="#EAEEE5"/>
<path d="M2.5 5C2.5 2.51472 4.51472 0.5 7 0.5H32C34.4853 0.5 36.5 2.51472 36.5 5V30C36.5 32.4853 34.4853 34.5 32 34.5H7C4.51472 34.5 2.5 32.4853 2.5 30V5Z" stroke="#3E7E55"/>
</g>
<path d="M14.6757 5.72974C15.228 5.72974 15.6757 5.28202 15.6757 4.72974C15.6757 4.17745 15.228 3.72974 14.6757 3.72974L14.6757 5.72974ZM14.6757 3.72974L6.72974 3.72974L6.72974 5.72974L14.6757 5.72974L14.6757 3.72974Z" fill="#3E7E55"/>
<path d="M25.2703 30.2162C24.718 30.2162 24.2703 30.664 24.2703 31.2162C24.2703 31.7685 24.718 32.2162 25.2703 32.2162L25.2703 30.2162ZM25.2703 32.2162L33.2162 32.2162L33.2162 30.2162L25.2703 30.2162L25.2703 32.2162Z" fill="#3E7E55"/>
<path d="M5.72974 12.6757C5.72974 13.2279 6.17745 13.6757 6.72974 13.6757C7.28202 13.6757 7.72974 13.2279 7.72974 12.6757L5.72974 12.6757ZM7.72974 12.6757L7.72974 4.72971L5.72974 4.72971L5.72974 12.6757L7.72974 12.6757Z" fill="#3E7E55"/>
<path d="M34.2162 23.2703C34.2162 22.718 33.7685 22.2703 33.2162 22.2703C32.6639 22.2703 32.2162 22.718 32.2162 23.2703L34.2162 23.2703ZM32.2162 23.2703L32.2162 31.2163L34.2162 31.2163L34.2162 23.2703L32.2162 23.2703Z" fill="#3E7E55"/>
<path d="M32.2162 12.6757C32.2162 13.2279 32.6639 13.6757 33.2162 13.6757C33.7685 13.6757 34.2162 13.2279 34.2162 12.6757L32.2162 12.6757ZM34.2162 12.6757L34.2162 4.72971L32.2162 4.72971L32.2162 12.6757L34.2162 12.6757Z" fill="#3E7E55"/>
<path d="M7.72974 23.2703C7.72974 22.718 7.28202 22.2703 6.72974 22.2703C6.17745 22.2703 5.72974 22.718 5.72974 23.2703L7.72974 23.2703ZM5.72974 23.2703L5.72974 31.2163L7.72974 31.2163L7.72974 23.2703L5.72974 23.2703Z" fill="#3E7E55"/>
<path d="M33.2162 4.72974L25.2703 4.72974" stroke="#3E7E55" stroke-width="2" stroke-linecap="round"/>
<path d="M6.72974 31.2162L14.6757 31.2162" stroke="#3E7E55" stroke-width="2" stroke-linecap="round"/>
<path d="M15.5586 13.5586L6.72974 4.72977" stroke="#3E7E55" stroke-width="2" stroke-linecap="round"/>
<path d="M24.3874 22.3873L33.2162 31.2162" stroke="#3E7E55" stroke-width="2" stroke-linecap="round"/>
<path d="M24.3874 13.5586L33.2162 4.72977" stroke="#3E7E55" stroke-width="2" stroke-linecap="round"/>
<path d="M15.5586 22.3873L6.72973 31.2162" stroke="#3E7E55" stroke-width="2" stroke-linecap="round"/>
<defs>
<filter id="filter0_d_402_517" x="0" y="0" width="43" height="43" filterUnits="userSpaceOnUse" color-interpolation-filters="sRGB">
<feFlood flood-opacity="0" result="BackgroundImageFix"/>
<feColorMatrix in="SourceAlpha" type="matrix" values="0 0 0 0 0 0 0 0 0 0 0 0 0 0 0 0 0 0 127 0" result="hardAlpha"/>
<feOffset dx="2" dy="4"/>
<feGaussianBlur stdDeviation="2"/>
<feComposite in2="hardAlpha" operator="out"/>
<feColorMatrix type="matrix" values="0 0 0 0 0 0 0 0 0 0 0 0 0 0 0 0 0 0 0.25 0"/>
<feBlend mode="normal" in2="BackgroundImageFix" result="effect1_dropShadow_402_517"/>
<feBlend mode="normal" in="SourceGraphic" in2="effect1_dropShadow_402_517" result="shape"/>
</filter>
</defs>
</svg>
